<?xml version="1.0" encoding="UTF-8"?>
<svg id="Capa_1" data-name="Capa 1" xmlns="http://www.w3.org/2000/svg" viewBox="0 0 100 100">
  <defs>
    <style>
      .cls-1 {
        fill: #333;
      }
    </style>
  </defs>
  <path class="cls-1" d="M80.31,22.3H29.84v-5.59c0-.71-.84-1.13-1.37-1.13h-7.73c-.55,0-1.35,.42-1.35,1.13v5.62c-4.14,.13-7.47,3.54-7.47,7.73v42.71c0,4.27,3.46,7.76,7.76,7.76h60.63c4.27,0,7.76-3.48,7.76-7.76V30.06c0-4.27-3.48-7.76-7.76-7.76Zm-42.45,48.73c-8.94,0-16.17-7.26-16.17-16.17s7.23-16.17,16.17-16.17,16.15,7.26,16.15,16.17-7.23,16.17-16.15,16.17Zm39.02-34.27c0,.71-1.24,1.21-2.22,1.21h-13.51c-.95,0-2.22-.5-2.22-1.21v-7.12c0-.71,1.27-1.37,2.22-1.37h13.51c.98,0,2.22,.66,2.22,1.37v7.12Z"/>
  <path class="cls-1" d="M49.79,54.86c0,6.6-5.36,11.92-11.92,11.92s-11.95-5.33-11.95-11.92,5.36-11.92,11.95-11.92,11.92,5.33,11.92,11.92Z"/>
</svg>