<?xml version="1.0" encoding="UTF-8"?>
<svg id="Capa_1" data-name="Capa 1" xmlns="http://www.w3.org/2000/svg" viewBox="0 0 100 100">
  <defs>
    <style>
      .cls-1 {
        fill: #333;
      }
    </style>
  </defs>
  <path class="cls-1" d="M69.84,52.19c-1.38-.2-2.23-.59-1.98-2.2,.14-1.05,.03-2.15-.82-2.8-1.84-1.44-2.18-3.53-2.63-5.54-.85-3.9-1.3-7.91-2.4-11.72-.4-1.33-.31-2.88-.59-4.27,9.36-4.47,19.03-8.38,28.96-11.75-.99-.43-1.88-.98-2.69-1.62-5.56,1.93-11.08,4.02-16.52,6.33-3.64,1.53-7.2,3.14-10.76,4.83-.28-.34-.65-.62-1.07-.88-.17-.08-.34-.17-.54-.25v-.06c-.34-.2-.73-.31-1.13-.4,9.05-4.39,18.42-8.22,28.02-11.59-.8-1.01-1.45-2.13-1.94-3.33-.13-.08-.27-.16-.39-.24-2.68,.95-5.33,1.95-7.98,2.98-.68-1.5-2.46-2.17-3.98-1.53-.9,.4-1.53,1.19-1.75,2.09-.82-.45-1.81-.54-2.74-.17-.9,.4-1.53,1.19-1.75,2.09-.82-.48-1.81-.56-2.74-.17-.9,.4-1.53,1.19-1.78,2.09-.79-.48-1.81-.56-2.71-.17-1.16,.51-1.86,1.64-1.86,2.82,0,.4,.08,.82,.25,1.21-1.64,.79-3.28,1.61-4.89,2.43-.03-.06-.06-.08-.06-.14-.85-1.47-2.71-1.98-4.18-1.13-.88,.51-1.41,1.36-1.53,2.26-.88-.37-1.86-.31-2.71,.17-.88,.51-1.41,1.36-1.53,2.29-.88-.37-1.86-.34-2.71,.14-.88,.51-1.41,1.36-1.53,2.29-.85-.37-1.86-.34-2.74,.17-1.41,.79-1.92,2.57-1.21,3.98-8.14,4.94-16.02,10.25-23.62,16.02v5.2c13.56-10.48,28.11-19.72,43.53-27.51-.28,.56-.45,1.16-.45,1.84,0,.25,.03,.51,.08,.76h.06c.03,.14,.06,.28,.06,.42-15.31,7.88-29.74,17.17-43.28,27.8v3.19c13.39-10.71,27.8-20.14,43.08-28.13-.28,1.55-.79,3.02-.96,4.55-.31,2.85-1.13,5.62-1.69,8.42-.54,2.57-1.89,3.73-4.52,3.76-4.07,.03-8.11,0-12.17,0-.9,0-1.86-.2-2.74,.28,.31,1.86,.45,3.42-2.34,3.28-2.09-.11-3.05,1.21-3.11,3.45-.17,8.47-.51,16.98-.79,25.48-.28,2.51,.96,3.19,3.28,3.11,2.6-.11,5.2-.68,7.8,.14,4.1,1.24,8.22,2.49,12.32,3.76,.51,.14,1.24,0,1.36,.85,.37,2.8,2.32,2.37,4.21,2.09,5.9-.93,11.81-1.92,17.71-2.85,2.6-.4,4.1-1.89,4.15-4.55,.17-7.43,.31-14.86,.79-22.26,.34-5.11-.99-6.55-6.13-7.32Zm-38.61,5.71h-.11c-.17,2.43-.28,4.86-.51,7.29-.06,.62,.42,1.84-.73,1.75-1.05-.08-2.66-.06-2.71-1.64-.14-3.19-.06-6.38-.06-9.55,0-1.1,.73-1.3,1.55-.99,.88,.31,2.37-.65,2.57,1.13,.06,.68,0,1.36,0,2.01Zm5.28-.93c-.17,1.64-.2,3.33-.28,4.97,0,1.19,.14,2.37,0,3.53-.14,1.02,.9,2.68-1.36,2.77-2.26,.06-2.4-1.27-2.23-2.97,.06-2.82,.14-5.68,.11-8.5-.03-1.27,.48-1.61,1.64-1.44,1.05,.17,2.32-.17,2.12,1.64Zm5.51,12.65c-1.13-.11-2.46-.23-2.49-1.89v-5.54h-.08c0-1.33-.03-2.68,.03-4.01,.06-.9-.73-2.34,1.3-2.2,1.55,.08,2.85,.14,2.71,2.29-.23,3.16-.23,6.36-.42,9.52-.06,.68,.37,1.98-1.05,1.84Zm8.47-.62c-.08,1.89-1.5,1.1-2.46,1.16-1.05,.06-2.09,.03-1.95-1.55,.17-1.67,.23-3.36,.34-5.03,0-.03-.03-.03-.03-.03,.14-1.75,.31-3.53,.37-5.28,.06-1.13,.37-1.86,1.64-1.55,1.02,.25,2.57-.31,2.49,1.67-.14,3.53-.25,7.09-.4,10.62Zm13.28-18.9c.73-.06,1.38,.25,1.3,1.13-.06,.9-.82,.62-1.36,.62-2.01-.06-3.98-.4-5.93-1.19,2.01-.2,3.98-.42,5.99-.56Zm-7.8-16.02c.37-.65-.37-2.63,1.36-2.32,1.41,.25,1.33,2.15,1.44,3.36,.08,1.13-.99,.79-1.69,.76-.93-.06-1.69-.31-1.1-1.81Zm-.79,6.69c.17-1.16-.48-3.45,2.46-3.19,2.63,.23,2.03,2.06,2.26,3.39,.31,1.72-1.16,1.1-2.15,1.24-.82-.51-2.91,.71-2.57-1.44Zm2.43,2.77c.76,.48,2.37-.73,2.46,1.21,.06,1.78-1.3,1.98-2.6,1.92-1.27-.06-2.8-.25-2.71-1.95,.11-1.89,1.84-.82,2.85-1.19Zm.73,26.04c-.03,1.64-1.27,1.47-2.18,1.24-1.13-.31-3.19,.82-3.19-1.69v-5.06h.14c0-1.69,.03-3.36,0-5.06-.03-1.33,.42-2.23,1.89-1.89,1.36,.31,3.64-.73,3.67,1.86,.03,3.53-.23,7.06-.34,10.59Zm8.56-8.33c-.2,2.34-.42,4.72-.51,7.06-.08,3.11-2.54,2.01-4.1,2.26-1.98,.37-1.84-1.16-1.78-2.46,.11-2.54,.42-5.06,.34-7.6-.06-2.32,.62-3.36,2.74-2.71q3.59,.14,3.31,3.45Zm6.24-.9c-.11,2.26-.23,4.52-.37,6.81-.06,.85-.11,1.72-1.16,2.01-.93,.23-1.89,1.13-2.82,.48-.79-.56-.23-1.58-.23-2.37-.03-1.02,0-2.03,0-3.05h.06c.06-1.36,.25-2.68,.2-4.04-.14-1.92,.71-2.37,2.51-2.34,2.01,.06,1.89,1.19,1.81,2.51Z"/>
</svg>