<?xml version="1.0" encoding="UTF-8"?>
<svg id="Capa_1" data-name="Capa 1" xmlns="http://www.w3.org/2000/svg" viewBox="0 0 100 100">
  <defs>
    <style>
      .cls-1 {
        fill: #333;
      }
    </style>
  </defs>
  <path class="cls-1" d="M30.26,35.2c-3.68,0-13.36,27.88-17.96,41.82-1.54,4.65-2.24,4.75-1.38,6.51,.75,1.54,4.31,1.23,4.31,1.23h29.46s2.31,.35,2.83-.61c.77-1.41,.12-2.02-.87-6.07-3.3-13.53-11.08-42.88-16.37-42.88Zm.16,17.95c-1.48-.06-1.72-6.39-3.16-6.8-1.21-.34-4.06,7.56-4.09,3.76,0,0,.49-1.18,1.22-2.86,1.79-4.11,5.06-11.15,6.22-10.81,1.53,.45,4.33,7.05,5.81,10.8,.6,1.51,1.09,2.24,.66,2.66-.85,.84-2.2-3.46-3.23-3.2-1.44,.37-1.96,6.51-3.43,6.44Z"/>
  <path class="cls-1" d="M88.66,78.24c-4.1-18.21-15.93-67.36-23.89-66.96-4.82,.24-15.23,28.96-19.03,39.93-.46,1.32-.82,2.37-1.06,3.1,2.69,8.42,5.1,17.79,6.6,23.92,.99,4.05,1.64,4.58,.87,5.99-.2,.36-.64,.54-1.11,.54h34.99s2.33,.11,2.95-1c.77-1.39,.63-1.39-.3-5.52Zm-14.68-46.99c-1.2,1.3-3.56-5.02-5.01-4.33-1.76,.83-2.49,8.26-4.35,8.18-1.88-.08-2.23-7.83-4.02-8.64-1.49-.68-3.48,6.21-4.74,4.96-.48-.47,.01-1.3,.73-2.96,2.17-5.01,6.71-15.03,8.27-14.58,2.18,.64,6.96,11.26,8.76,15.45,.45,1.04,.65,1.61,.37,1.92Z"/>
</svg>