<?xml version="1.0" encoding="UTF-8"?>
<svg id="Capa_1" data-name="Capa 1" xmlns="http://www.w3.org/2000/svg" viewBox="0 0 100 100">
  <defs>
    <style>
      .cls-1 {
        fill: #333;
      }
    </style>
  </defs>
  <path class="cls-1" d="M73.59,7.34c-8.19-2.49-17.13,.97-21.25,8.39-.74,1.35-1.6,1.66-3.01,1.66-9.25-.03-18.53,.17-27.79-.09-5.84-.17-8.11,3.49-8.02,8.11,.23,9.08,.09,18.16,.09,27.24s.17,17.44-.09,26.15c-.11,3.84,1.03,6.59,3.98,8.94,3.01,2.41,5.27,2.49,7.79-.46,1.12-1.29,1.75-1.29,2.86,.06,2.41,2.92,5.16,2.92,7.73,.26,1.75-1.8,1.43-1.95,3.24-.03,2.49,2.66,5.16,2.66,7.65-.03,1.86-1.98,1.55-1.66,3.24,.06,2.58,2.64,5.21,2.58,7.65-.11,1.55-1.66,1.58-1.69,3.04-.03,1.35,1.52,2.86,2.46,4.96,1.92,3.18-.8,6.67-5.33,6.67-8.59,0-12.03,.03-24.09-.03-36.12-.03-1.52,.46-2.18,1.89-2.72,7.45-2.75,11.57-8.22,12.23-16.07,.72-8.28-4.9-16.13-12.83-18.53Zm-8.42,77.11c-.8,.72-1.15-.2-1.58-.63-1.09-1.12-2.09-2.32-3.84-2.49-2.21-.23-3.72,.8-4.9,2.49-.72,1-1.29,1.03-2.09,.09-.83-1.03-1.72-2.12-3.09-2.43-2.23-.54-4.04,.2-5.39,2.06-.83,1.2-1.52,1.4-2.61,.11-2.78-3.24-5.3-3.27-8.19-.11-1.06,1.17-1.63,1.35-2.72-.03-2.41-3.01-5.24-3.01-7.91-.32-.54,.57-1,1.89-1.83,1.35-1.17-.72-2.49-1.58-2.81-3.15-.09-.46-.03-.95-.03-1.43V25.13c0-2.86,.32-3.15,3.09-3.15h25.95q2.69,0,2.69,2.64c0,8.56,5.47,15.73,13.72,17.87,.11,.03,.23,.06,.37,.09q3.7,.86,3.7,4.76c0,10.83-.09,21.66,.09,32.51,.03,2.29-1.26,3.38-2.64,4.61Zm3.01-46c-7.56,0-13.66-6.04-13.66-13.55-.03-7.65,6.04-13.81,13.63-13.81s13.72,6.13,13.75,13.58c.03,7.59-6.13,13.78-13.72,13.78Z"/>
  <path class="cls-1" d="M60.93,67.26c.03,1.49-1,2.32-3.01,2.32-5.07,.03-10.17,0-15.24,0s-10.05,.03-15.1,0c-1.92,0-2.89-.74-2.95-2.18-.06-1.49,1.03-2.38,3.01-2.38,10.11-.03,20.22-.03,30.33,0,1.86,0,2.92,.83,2.95,2.23Z"/>
  <path class="cls-1" d="M60.93,55.4c-.03,1.46-1.06,2.21-3.12,2.21H27.64c-2-.03-3.04-.8-3.01-2.32,.03-1.4,1.09-2.26,2.95-2.26,10.11-.03,20.22-.03,30.33,0,1.95,0,3.06,.92,3.01,2.38Z"/>
  <path class="cls-1" d="M51.51,43.46c-.06,1.4-1.06,2.15-2.98,2.15H27.5c-1.86,0-2.86-.8-2.86-2.26s1.06-2.29,2.89-2.29c7.02-.03,14.01-.03,21.02,0,1.92,0,3.04,.95,2.95,2.41Z"/>
  <path class="cls-1" d="M74.34,28.65c-.23,2.72-1.83,4.38-4.35,5.24-2.18,.74-4.3,.46-6.39-.34-1.26-.52-1.89-1.55-1.46-2.92,.46-1.43,1.55-2.01,2.98-1.6,.83,.23,1.63,.43,2.49,.4,.63-.03,1.29-.06,1.46-.8,.23-.83-.4-1.17-1.03-1.49-.52-.26-1.09-.46-1.66-.72-3.27-1.43-4.67-3.81-4.07-6.82,.57-2.64,3.15-4.41,6.65-4.41,.89-.06,1.89,.09,2.86,.46,1.35,.52,1.86,1.55,1.55,2.89-.34,1.37-1.35,1.95-2.78,1.69-.57-.11-1.17-.29-1.75-.34-.57-.06-1.17,.11-1.37,.69-.23,.66,.37,.95,.86,1.2,.92,.46,1.89,.8,2.78,1.29,2.23,1.17,3.44,3.06,3.24,5.59Z"/>
</svg>